# xmcd CD database file
#
# Track frame offsets:
#	150
#	11062
#	18670
#	22119
#
# Disc length: 401 seconds
#
# Revision: 0
# Processed by: cddbd v1.5.2PL0 Copyright (c) Steve Scherf et al.
# Submitted via: CDex 1.51
#
DISCID=2b018f04
DTITLE=Steve Dundon - It's the crows again
DYEAR=1998
DGENRE=Blues
TTITLE0=It's the crows again
TTITLE1=Not the crows again
TTITLE2=Live and Kicking Theme
TTITLE3=Pride of South Australia
EXTD=YEAR: 1998
EXTT0=
EXTT1=
EXTT2=
EXTT3=
PLAYORDER=
